<svg width="129" height="24" viewBox="0 0 129 24" fill="none" xmlns="http://www.w3.org/2000/svg">
<path d="M0.56 23V6.776H2.512V23H0.56ZM0.56 2.552C0.304 2.296 0.176 1.976 0.176 1.592C0.176 1.208 0.304 0.887999 0.56 0.631998C0.816 0.354666 1.136 0.216 1.52 0.216C1.904 0.216 2.224 0.354666 2.48 0.631998C2.75733 0.887999 2.896 1.208 2.896 1.592C2.896 1.976 2.75733 2.296 2.48 2.552C2.224 2.808 1.904 2.936 1.52 2.936C1.136 2.936 0.816 2.808 0.56 2.552ZM8.8065 6.776V9.56C9.80917 7.53333 11.5265 6.52 13.9585 6.52C15.5158 6.52 16.7638 7 17.7025 7.96C18.6412 8.92 19.1105 10.1573 19.1105 11.672V23H17.1585V12.28C17.1585 11.0213 16.8385 10.0613 16.1985 9.4C15.5585 8.73867 14.7158 8.408 13.6705 8.408C12.3478 8.408 11.2065 8.92 10.2465 9.944C9.2865 10.9467 8.8065 12.312 8.8065 14.04V23H6.8545V6.776H8.8065ZM30.352 0.407999V2.328C29.904 2.15733 29.4347 2.072 28.944 2.072C28.304 2.072 27.7493 2.328 27.28 2.84C26.832 3.33066 26.608 4.07733 26.608 5.08V6.776H30.32V8.44H26.608V23H24.656V8.44H21.68V6.776H24.656V5.048C24.656 3.576 25.04 2.40267 25.808 1.528C26.576 0.653333 27.6533 0.216 29.04 0.216C29.4453 0.216 29.8827 0.279999 30.352 0.407999ZM39.3823 23.288C37.0996 23.288 35.2863 22.4987 33.9423 20.92C32.5983 19.3413 31.9263 17.3573 31.9263 14.968C31.9263 12.6 32.6196 10.6053 34.0063 8.984C35.3929 7.36267 37.1849 6.552 39.3823 6.552C41.7929 6.552 43.6596 7.352 44.9823 8.952C46.3263 10.5307 46.9983 12.536 46.9983 14.968C46.9983 17.3787 46.3156 19.3733 44.9503 20.952C43.6063 22.5093 41.7503 23.288 39.3823 23.288ZM39.3823 8.408C37.6969 8.408 36.3743 9.048 35.4143 10.328C34.4543 11.608 33.9743 13.1547 33.9743 14.968C33.9743 16.7387 34.4649 18.264 35.4463 19.544C36.4489 20.8027 37.7609 21.432 39.3823 21.432C41.1529 21.432 42.5183 20.8133 43.4783 19.576C44.4596 18.3173 44.9503 16.7813 44.9503 14.968C44.9503 13.0907 44.4916 11.5333 43.5743 10.296C42.6569 9.03733 41.2596 8.408 39.3823 8.408ZM57.6397 20.472C58.8344 20.472 59.8371 19.9707 60.6477 18.968C61.4584 17.944 61.8637 16.632 61.8637 15.032C61.8637 13.1973 61.4584 11.7893 60.6477 10.808C59.8371 9.80533 58.8024 9.304 57.5437 9.304C56.4344 9.304 55.4317 9.752 54.5357 10.648C53.6611 11.544 53.2237 12.92 53.2237 14.776C53.2237 16.696 53.6504 18.1253 54.5037 19.064C55.3571 20.0027 56.4024 20.472 57.6397 20.472ZM53.2237 0.375999V9.24C54.3757 7.448 56.0077 6.552 58.1197 6.552C60.1677 6.552 61.8424 7.32 63.1437 8.856C64.4451 10.392 65.0957 12.4293 65.0957 14.968C65.0957 17.2507 64.4771 19.2027 63.2397 20.824C62.0024 22.424 60.3064 23.224 58.1517 23.224C55.9971 23.224 54.3544 22.328 53.2237 20.536V23H50.0557V0.375999H53.2237ZM74.7608 23.288C72.3714 23.288 70.4941 22.5093 69.1288 20.952C67.7634 19.3947 67.0808 17.4213 67.0808 15.032C67.0808 12.6 67.7848 10.584 69.1928 8.984C70.6008 7.36267 72.4568 6.552 74.7608 6.552C77.2354 6.552 79.1448 7.34133 80.4888 8.92C81.8328 10.4773 82.5048 12.472 82.5048 14.904C82.5048 17.336 81.8114 19.3413 80.4248 20.92C79.0594 22.4987 77.1714 23.288 74.7608 23.288ZM74.7288 9.208C73.3421 9.208 72.2648 9.76267 71.4968 10.872C70.7288 11.96 70.3448 13.3147 70.3448 14.936C70.3448 16.536 70.7394 17.8907 71.5288 19C72.3181 20.088 73.3954 20.632 74.7608 20.632C76.2114 20.632 77.3101 20.0987 78.0568 19.032C78.8248 17.9653 79.2088 16.6107 79.2088 14.968C79.2088 13.2827 78.8461 11.9067 78.1208 10.84C77.3954 9.752 76.2648 9.208 74.7288 9.208ZM92.1833 23.288C89.7939 23.288 87.9166 22.5093 86.5513 20.952C85.1859 19.3947 84.5033 17.4213 84.5033 15.032C84.5033 12.6 85.2073 10.584 86.6153 8.984C88.0233 7.36267 89.8793 6.552 92.1833 6.552C94.6579 6.552 96.5673 7.34133 97.9113 8.92C99.2553 10.4773 99.9273 12.472 99.9273 14.904C99.9273 17.336 99.2339 19.3413 97.8473 20.92C96.4819 22.4987 94.5939 23.288 92.1833 23.288ZM92.1513 9.208C90.7646 9.208 89.6873 9.76267 88.9193 10.872C88.1513 11.96 87.7673 13.3147 87.7673 14.936C87.7673 16.536 88.1619 17.8907 88.9513 19C89.7406 20.088 90.8179 20.632 92.1833 20.632C93.6339 20.632 94.7326 20.0987 95.4793 19.032C96.2473 17.9653 96.6313 16.6107 96.6313 14.968C96.6313 13.2827 96.2686 11.9067 95.5433 10.84C94.8179 9.752 93.6873 9.208 92.1513 9.208ZM102.822 23V0.599998H105.958V23H102.822ZM109.702 14.52L116.07 23H112.326L106.086 14.52L112.198 6.776H115.878L109.702 14.52ZM127.43 7.32V10.168C126.384 9.54933 125.04 9.24 123.398 9.24C122.651 9.24 122.054 9.41067 121.606 9.752C121.179 10.0933 120.966 10.5413 120.966 11.096C120.966 11.2453 120.976 11.3947 120.998 11.544C121.04 11.672 121.104 11.8107 121.19 11.96C121.275 12.088 121.35 12.2053 121.414 12.312C121.499 12.3973 121.627 12.4933 121.798 12.6C121.968 12.7067 122.096 12.8027 122.182 12.888C122.288 12.952 122.448 13.0373 122.662 13.144C122.896 13.2507 123.067 13.336 123.174 13.4C123.28 13.4427 123.462 13.528 123.718 13.656C123.995 13.7627 124.187 13.8373 124.294 13.88C125.552 14.4347 126.534 15.064 127.238 15.768C127.963 16.4507 128.326 17.368 128.326 18.52C128.326 19.9707 127.814 21.112 126.79 21.944C125.766 22.7547 124.379 23.16 122.63 23.16C120.71 23.16 119.11 22.84 117.83 22.2V19.224C119.323 20.1413 120.87 20.6 122.47 20.6C123.302 20.6 123.942 20.4293 124.39 20.088C124.859 19.7467 125.094 19.2987 125.094 18.744C125.094 18.2747 124.912 17.8587 124.55 17.496C124.187 17.112 123.814 16.8347 123.43 16.664C123.067 16.472 122.438 16.184 121.542 15.8C119.003 14.7547 117.734 13.2187 117.734 11.192C117.734 9.76267 118.267 8.64267 119.334 7.832C120.4 7.02133 121.734 6.616 123.334 6.616C125.083 6.616 126.448 6.85067 127.43 7.32Z" fill="black"/>
</svg>
