<svg width="42" height="46" viewBox="0 0 42 46" fill="none" xmlns="http://www.w3.org/2000/svg">
<rect width="42" height="46" rx="4" fill="#E0CEBA"/>
<path d="M10.7163 34V17.776H12.6683V34H10.7163ZM10.7163 13.552C10.4603 13.296 10.3323 12.976 10.3323 12.592C10.3323 12.208 10.4603 11.888 10.7163 11.632C10.9723 11.3547 11.2923 11.216 11.6763 11.216C12.0603 11.216 12.3803 11.3547 12.6363 11.632C12.9136 11.888 13.0523 12.208 13.0523 12.592C13.0523 12.976 12.9136 13.296 12.6363 13.552C12.3803 13.808 12.0603 13.936 11.6763 13.936C11.2923 13.936 10.9723 13.808 10.7163 13.552ZM25.0748 31.472C26.2694 31.472 27.2721 30.9707 28.0828 29.968C28.8934 28.944 29.2988 27.632 29.2988 26.032C29.2988 24.1973 28.8934 22.7893 28.0828 21.808C27.2721 20.8053 26.2374 20.304 24.9788 20.304C23.8694 20.304 22.8668 20.752 21.9708 21.648C21.0961 22.544 20.6588 23.92 20.6588 25.776C20.6588 27.696 21.0854 29.1253 21.9388 30.064C22.7921 31.0027 23.8374 31.472 25.0748 31.472ZM20.6588 11.376V20.24C21.8108 18.448 23.4428 17.552 25.5548 17.552C27.6028 17.552 29.2774 18.32 30.5788 19.856C31.8801 21.392 32.5308 23.4293 32.5308 25.968C32.5308 28.2507 31.9121 30.2027 30.6748 31.824C29.4374 33.424 27.7414 34.224 25.5868 34.224C23.4321 34.224 21.7894 33.328 20.6588 31.536V34H17.4908V11.376H20.6588Z" fill="black"/>
</svg>
